<svg width="32" height="32" viewBox="0 0 32 32" fill="none" xmlns="http://www.w3.org/2000/svg">
<g clip-path="url(#clip0_11_2)">
<circle cx="16" cy="16" r="16" fill="#3B82F6"/>
<path d="M12.58 23L9.5 17.56H8.18V23H5.38V9.04H10.62C11.7 9.04 12.62 9.23333 13.38 9.62C14.14 9.99333 14.7067 10.5067 15.08 11.16C15.4667 11.8 15.66 12.52 15.66 13.32C15.66 14.24 15.3933 15.0733 14.86 15.82C14.3267 16.5533 13.5333 17.06 12.48 17.34L15.82 23H12.58ZM8.18 15.46H10.52C11.28 15.46 11.8467 15.28 12.22 14.92C12.5933 14.5467 12.78 14.0333 12.78 13.38C12.78 12.74 12.5933 12.2467 12.22 11.9C11.8467 11.54 11.28 11.36 10.52 11.36H8.18V15.46ZM26.3325 9.04V18.84C26.3325 20.2 25.9392 21.26 25.1525 22.02C24.3658 22.7667 23.3125 23.14 21.9925 23.14C20.6592 23.14 19.5792 22.7533 18.7525 21.98C17.9392 21.2067 17.5325 20.1267 17.5325 18.74H20.3325C20.3458 19.34 20.4858 19.8067 20.7525 20.14C21.0325 20.4733 21.4325 20.64 21.9525 20.64C22.4592 20.64 22.8458 20.48 23.1125 20.16C23.3792 19.84 23.5125 19.4 23.5125 18.84V9.04H26.3325Z" fill="white"/>
</g>
<defs>
<clipPath id="clip0_11_2">
<rect width="32" height="32" fill="white"/>
</clipPath>
</defs>
</svg>
